<mxfile host="app.diagrams.net" modified="2023-07-21T20:37:57.968Z" agent="Mozilla/5.0 (Macintosh; Intel Mac OS X 10_15_7) AppleWebKit/537.36 (KHTML, like Gecko) Chrome/114.0.0.0 Safari/537.36" etag="CkpVsbStGi-HGjtr4YO3" version="21.6.2" type="device">
  <diagram id="JZUFtQsNH0Z-PXl1aiOA" name="Page-1">
    <mxGraphModel dx="2302" dy="1145" grid="1" gridSize="10" guides="1" tooltips="1" connect="1" arrows="1" fold="1" page="1" pageScale="1" pageWidth="850" pageHeight="1100" math="0" shadow="0">
      <root>
        <mxCell id="0" />
        <mxCell id="1" parent="0" />
        <mxCell id="ODm34Mm6nha2KoacMiL--3" value="" style="edgeStyle=orthogonalEdgeStyle;rounded=0;orthogonalLoop=1;jettySize=auto;html=1;" parent="1" source="ODm34Mm6nha2KoacMiL--1" target="ODm34Mm6nha2KoacMiL--2" edge="1">
          <mxGeometry relative="1" as="geometry" />
        </mxCell>
        <mxCell id="ODm34Mm6nha2KoacMiL--1" value="Start" style="ellipse;whiteSpace=wrap;html=1;" parent="1" vertex="1">
          <mxGeometry x="45" y="60" width="90" height="50" as="geometry" />
        </mxCell>
        <mxCell id="ODm34Mm6nha2KoacMiL--5" value="" style="edgeStyle=orthogonalEdgeStyle;rounded=0;orthogonalLoop=1;jettySize=auto;html=1;" parent="1" source="ODm34Mm6nha2KoacMiL--2" target="ODm34Mm6nha2KoacMiL--4" edge="1">
          <mxGeometry relative="1" as="geometry" />
        </mxCell>
        <mxCell id="ODm34Mm6nha2KoacMiL--2" value="Enable software idle state" style="whiteSpace=wrap;html=1;" parent="1" vertex="1">
          <mxGeometry x="30" y="150" width="120" height="60" as="geometry" />
        </mxCell>
        <mxCell id="ODm34Mm6nha2KoacMiL--7" value="" style="edgeStyle=orthogonalEdgeStyle;rounded=0;orthogonalLoop=1;jettySize=auto;html=1;" parent="1" source="ODm34Mm6nha2KoacMiL--4" target="ODm34Mm6nha2KoacMiL--6" edge="1">
          <mxGeometry relative="1" as="geometry" />
        </mxCell>
        <mxCell id="ODm34Mm6nha2KoacMiL--4" value="update display with &quot;Welcome! Swipe the product on the barcode Scanner&quot;" style="whiteSpace=wrap;html=1;" parent="1" vertex="1">
          <mxGeometry x="30" y="250" width="120" height="60" as="geometry" />
        </mxCell>
        <mxCell id="ODm34Mm6nha2KoacMiL--9" value="" style="edgeStyle=orthogonalEdgeStyle;rounded=0;orthogonalLoop=1;jettySize=auto;html=1;" parent="1" source="ODm34Mm6nha2KoacMiL--6" target="ODm34Mm6nha2KoacMiL--8" edge="1">
          <mxGeometry relative="1" as="geometry" />
        </mxCell>
        <mxCell id="ODm34Mm6nha2KoacMiL--6" value="Set barcode scanner to enable" style="whiteSpace=wrap;html=1;" parent="1" vertex="1">
          <mxGeometry x="30" y="340" width="120" height="60" as="geometry" />
        </mxCell>
        <mxCell id="ODm34Mm6nha2KoacMiL--11" value="" style="edgeStyle=orthogonalEdgeStyle;rounded=0;orthogonalLoop=1;jettySize=auto;html=1;" parent="1" source="ODm34Mm6nha2KoacMiL--8" target="ODm34Mm6nha2KoacMiL--10" edge="1">
          <mxGeometry relative="1" as="geometry" />
        </mxCell>
        <mxCell id="ODm34Mm6nha2KoacMiL--8" value="Payment module: disable" style="whiteSpace=wrap;html=1;" parent="1" vertex="1">
          <mxGeometry x="30" y="450" width="120" height="60" as="geometry" />
        </mxCell>
        <mxCell id="ODm34Mm6nha2KoacMiL--13" value="" style="edgeStyle=orthogonalEdgeStyle;rounded=0;orthogonalLoop=1;jettySize=auto;html=1;" parent="1" source="ODm34Mm6nha2KoacMiL--10" target="ODm34Mm6nha2KoacMiL--12" edge="1">
          <mxGeometry relative="1" as="geometry" />
        </mxCell>
        <mxCell id="ODm34Mm6nha2KoacMiL--10" value="Receipt printer: Disable" style="whiteSpace=wrap;html=1;" parent="1" vertex="1">
          <mxGeometry x="30" y="560" width="120" height="60" as="geometry" />
        </mxCell>
        <mxCell id="ODm34Mm6nha2KoacMiL--12" value="End" style="ellipse;whiteSpace=wrap;html=1;" parent="1" vertex="1">
          <mxGeometry x="50" y="650" width="80" height="40" as="geometry" />
        </mxCell>
        <mxCell id="ODm34Mm6nha2KoacMiL--16" value="" style="edgeStyle=orthogonalEdgeStyle;rounded=0;orthogonalLoop=1;jettySize=auto;html=1;" parent="1" source="ODm34Mm6nha2KoacMiL--14" target="ODm34Mm6nha2KoacMiL--15" edge="1">
          <mxGeometry relative="1" as="geometry" />
        </mxCell>
        <mxCell id="ODm34Mm6nha2KoacMiL--14" value="Start" style="ellipse;whiteSpace=wrap;html=1;" parent="1" vertex="1">
          <mxGeometry x="240" y="60" width="90" height="50" as="geometry" />
        </mxCell>
        <mxCell id="ODm34Mm6nha2KoacMiL--18" value="" style="edgeStyle=orthogonalEdgeStyle;rounded=0;orthogonalLoop=1;jettySize=auto;html=1;" parent="1" source="ODm34Mm6nha2KoacMiL--15" target="ODm34Mm6nha2KoacMiL--17" edge="1">
          <mxGeometry relative="1" as="geometry" />
        </mxCell>
        <mxCell id="ODm34Mm6nha2KoacMiL--15" value="Enable Payment State" style="whiteSpace=wrap;html=1;" parent="1" vertex="1">
          <mxGeometry x="225" y="150" width="120" height="60" as="geometry" />
        </mxCell>
        <mxCell id="ODm34Mm6nha2KoacMiL--20" value="" style="edgeStyle=orthogonalEdgeStyle;rounded=0;orthogonalLoop=1;jettySize=auto;html=1;" parent="1" source="ODm34Mm6nha2KoacMiL--17" target="ODm34Mm6nha2KoacMiL--19" edge="1">
          <mxGeometry relative="1" as="geometry" />
        </mxCell>
        <mxCell id="ODm34Mm6nha2KoacMiL--17" value="Update display showing receipt and payment options" style="whiteSpace=wrap;html=1;" parent="1" vertex="1">
          <mxGeometry x="225" y="250" width="120" height="60" as="geometry" />
        </mxCell>
        <mxCell id="ODm34Mm6nha2KoacMiL--22" value="" style="edgeStyle=orthogonalEdgeStyle;rounded=0;orthogonalLoop=1;jettySize=auto;html=1;" parent="1" source="ODm34Mm6nha2KoacMiL--19" target="ODm34Mm6nha2KoacMiL--21" edge="1">
          <mxGeometry relative="1" as="geometry" />
        </mxCell>
        <mxCell id="ODm34Mm6nha2KoacMiL--19" value="Set barcode scanner to disable" style="whiteSpace=wrap;html=1;" parent="1" vertex="1">
          <mxGeometry x="225" y="340" width="120" height="60" as="geometry" />
        </mxCell>
        <mxCell id="ODm34Mm6nha2KoacMiL--24" value="" style="edgeStyle=orthogonalEdgeStyle;rounded=0;orthogonalLoop=1;jettySize=auto;html=1;" parent="1" source="ODm34Mm6nha2KoacMiL--21" target="ODm34Mm6nha2KoacMiL--23" edge="1">
          <mxGeometry relative="1" as="geometry" />
        </mxCell>
        <mxCell id="ODm34Mm6nha2KoacMiL--21" value="Payment module: Enable" style="whiteSpace=wrap;html=1;" parent="1" vertex="1">
          <mxGeometry x="225" y="450" width="120" height="60" as="geometry" />
        </mxCell>
        <mxCell id="ODm34Mm6nha2KoacMiL--26" value="" style="edgeStyle=orthogonalEdgeStyle;rounded=0;orthogonalLoop=1;jettySize=auto;html=1;" parent="1" source="ODm34Mm6nha2KoacMiL--23" target="ODm34Mm6nha2KoacMiL--25" edge="1">
          <mxGeometry relative="1" as="geometry" />
        </mxCell>
        <mxCell id="ODm34Mm6nha2KoacMiL--23" value="Receipt printer : Enable" style="whiteSpace=wrap;html=1;" parent="1" vertex="1">
          <mxGeometry x="225" y="560" width="120" height="60" as="geometry" />
        </mxCell>
        <mxCell id="ODm34Mm6nha2KoacMiL--25" value="End" style="ellipse;whiteSpace=wrap;html=1;" parent="1" vertex="1">
          <mxGeometry x="245" y="650" width="80" height="40" as="geometry" />
        </mxCell>
        <mxCell id="ODm34Mm6nha2KoacMiL--27" value="&lt;font style=&quot;font-size: 18px;&quot;&gt;Idle State&lt;/font&gt;" style="text;html=1;align=center;verticalAlign=middle;resizable=0;points=[];autosize=1;strokeColor=none;fillColor=none;" parent="1" vertex="1">
          <mxGeometry x="40" y="13" width="100" height="40" as="geometry" />
        </mxCell>
        <mxCell id="ODm34Mm6nha2KoacMiL--28" value="&lt;font style=&quot;font-size: 18px;&quot;&gt;Payment State&lt;/font&gt;" style="text;html=1;align=center;verticalAlign=middle;resizable=0;points=[];autosize=1;strokeColor=none;fillColor=none;" parent="1" vertex="1">
          <mxGeometry x="210" y="13" width="140" height="40" as="geometry" />
        </mxCell>
      </root>
    </mxGraphModel>
  </diagram>
</mxfile>
